<?xml version="1.0" standalone="no"?>
<!DOCTYPE svg PUBLIC "-//W3C//DTD SVG 20010904//EN"
 "http://www.w3.org/TR/2001/REC-SVG-20010904/DTD/svg10.dtd">
<svg version="1.0" xmlns="http://www.w3.org/2000/svg"
 width="180.000000pt" height="180.000000pt" viewBox="0 0 180.000000 180.000000"
 preserveAspectRatio="xMidYMid meet">
<metadata>
Created by potrace 1.16, written by Peter Selinger 2001-2019
</metadata>
<g transform="translate(0.000000,180.000000) scale(0.100000,-0.100000)"
fill="#000000" stroke="none">
<path d="M825 1758 c-55 -29 -62 -92 -15 -131 16 -14 34 -27 40 -29 14 -4 -6
-92 -24 -107 -19 -15 -144 -43 -166 -36 -11 3 -32 22 -46 41 -21 26 -25 41
-20 65 11 57 -40 102 -87 78 -29 -16 -37 -28 -37 -61 0 -30 32 -58 66 -58 24
0 32 -15 44 -74 8 -38 7 -39 -69 -112 -42 -40 -83 -74 -91 -74 -8 0 -31 5 -51
10 -32 9 -37 15 -43 49 -6 42 -44 81 -78 81 -27 0 -74 -26 -82 -45 -31 -81 30
-131 130 -110 26 6 35 2 58 -26 15 -18 25 -39 22 -48 -50 -151 -63 -181 -84
-190 -33 -15 -59 -14 -66 4 -9 24 -53 37 -79 24 -29 -16 -37 -28 -37 -61 0
-29 31 -58 63 -58 10 0 28 7 41 16 21 13 28 13 59 1 31 -13 35 -20 41 -63 4
-27 14 -77 23 -112 15 -62 14 -64 -6 -86 -15 -15 -30 -22 -45 -19 -16 3 -28
-2 -39 -17 -37 -53 24 -92 72 -46 34 33 76 34 92 4 7 -13 43 -55 81 -94 67
-70 68 -71 60 -110 -5 -27 -14 -40 -27 -42 -76 -11 -105 -35 -105 -85 0 -61
66 -100 120 -72 39 20 54 58 41 97 -12 35 -1 58 40 82 26 15 31 15 76 -3 27
-11 71 -22 99 -26 78 -12 92 -20 105 -63 9 -33 9 -43 -5 -64 -14 -22 -14 -26
0 -46 17 -24 43 -29 62 -10 15 15 16 55 1 64 -14 8 -6 79 11 99 6 7 30 17 53
20 23 4 69 18 102 31 59 24 60 24 85 5 22 -16 25 -25 22 -71 -3 -42 0 -56 18
-75 30 -32 64 -39 101 -20 52 27 61 92 18 131 -11 10 -38 20 -61 23 -36 5 -43
10 -50 36 -7 27 -3 35 49 87 58 59 84 69 124 48 12 -7 19 -21 19 -40 0 -57 73
-80 109 -34 26 33 26 45 2 75 -14 17 -28 23 -57 22 -39 -1 -84 27 -84 51 0 6
16 49 35 96 39 99 58 112 124 90 47 -15 71 -3 71 36 0 35 -39 51 -72 30 -19
-12 -32 -14 -50 -7 -24 9 -26 15 -32 106 -7 87 -5 98 11 111 32 24 62 27 100
9 36 -17 39 -17 72 1 62 34 62 108 0 143 -47 26 -119 -12 -119 -63 0 -27 -27
-38 -72 -29 -21 4 -35 17 -50 47 -11 22 -34 60 -49 83 -16 23 -29 47 -29 53 0
21 53 90 69 90 45 0 57 63 15 82 -23 11 -29 10 -44 -9 -10 -13 -16 -32 -13
-46 4 -20 -3 -30 -33 -51 -20 -14 -42 -22 -48 -18 -6 4 -44 28 -83 54 l-73 48
0 50 c0 39 4 51 20 60 36 19 54 57 42 86 -21 45 -87 51 -114 10 -13 -19 -9
-59 9 -78 15 -17 15 -21 0 -54 -9 -19 -24 -37 -32 -40 -8 -4 -50 0 -92 7 l-78
14 -12 50 -13 50 32 26 c77 64 1 185 -87 137z m166 -388 c250 -47 430 -295
391 -541 -32 -213 -198 -379 -411 -411 -253 -40 -500 145 -543 407 -53 316
245 605 563 545z"/>
<path d="M975 1318 c-69 -37 -56 -129 22 -152 30 -9 81 19 93 50 27 70 -50
138 -115 102z"/>
<path d="M635 728 c-69 -37 -56 -129 22 -152 30 -9 81 19 93 50 27 70 -50 138
-115 102z"/>
</g>
</svg>
