<?xml version="1.0" standalone="no"?>
<!DOCTYPE svg PUBLIC "-//W3C//DTD SVG 20010904//EN"
 "http://www.w3.org/TR/2001/REC-SVG-20010904/DTD/svg10.dtd">
<svg version="1.0" xmlns="http://www.w3.org/2000/svg"
 width="256.000000pt" height="256.000000pt" viewBox="0 0 512.000000 512.000000"
 preserveAspectRatio="xMidYMid meet">
<metadata>
Created by potrace 1.16, written by Peter Selinger 2001-2019
</metadata>
<g transform="translate(0.000000,512.000000) scale(0.100000,-0.100000)"
fill="#000000" stroke="none">
<path d="M2385 4491 c-140 -86 -118 -286 36 -333 33 -9 39 -16 39 -38 0 -66
-57 -203 -110 -263 -26 -30 -41 -36 -114 -51 -47 -9 -117 -28 -156 -41 -58
-20 -77 -22 -94 -13 -51 26 -120 84 -161 135 l-45 55 25 29 c92 110 -22 266
-159 218 -76 -26 -110 -124 -70 -200 19 -37 91 -72 137 -67 31 3 33 1 55 -62
13 -36 26 -100 29 -145 l5 -80 -68 -45 c-38 -24 -125 -100 -193 -168 l-125
-125 -68 7 c-37 3 -97 16 -132 27 l-64 21 10 35 c32 117 -70 231 -197 221
-103 -9 -169 -80 -169 -183 0 -61 22 -105 71 -142 33 -25 45 -28 113 -28 69 0
80 3 113 28 l37 28 38 -29 c47 -38 82 -77 115 -125 l25 -39 -33 -72 c-38 -83
-89 -240 -100 -303 -11 -72 -110 -138 -243 -163 -42 -7 -43 -7 -56 25 -57 136
-266 96 -266 -52 0 -87 49 -137 137 -137 59 -1 99 22 123 71 13 27 19 30 50
26 52 -7 119 -31 176 -65 l51 -31 7 -81 c8 -97 36 -225 69 -321 l24 -71 -24
-48 c-14 -27 -56 -79 -94 -117 l-69 -68 -25 24 c-18 19 -35 25 -69 25 -37 0
-48 -5 -70 -31 -55 -65 -16 -148 69 -149 50 0 82 21 93 63 7 28 16 35 73 55
37 14 97 26 144 29 l80 5 66 -88 c59 -79 130 -153 251 -262 63 -56 72 -180 25
-317 l-14 -40 -59 3 c-72 4 -133 -18 -169 -60 -56 -67 -58 -171 -3 -234 43
-49 78 -64 145 -64 111 0 183 70 183 178 0 56 -9 83 -42 119 l-20 22 27 35
c59 77 185 156 250 156 19 0 74 -11 122 -26 49 -14 133 -32 188 -41 96 -15
102 -17 137 -55 43 -45 82 -123 102 -200 13 -52 13 -53 -10 -66 -31 -16 -44
-42 -44 -87 0 -52 36 -85 92 -85 46 1 68 12 86 47 22 40 14 73 -24 111 l-37
37 16 71 c30 136 83 215 160 234 112 27 199 54 275 87 79 34 85 35 129 23 50
-14 137 -75 197 -138 l39 -41 -21 -26 c-48 -60 -36 -171 24 -229 85 -83 224
-67 291 33 18 26 23 48 23 93 0 67 -16 104 -60 142 -56 46 -134 55 -210 22
-26 -11 -51 75 -57 189 -4 100 -4 100 29 155 38 61 91 103 156 121 56 16 190
6 262 -19 51 -18 55 -22 53 -48 -9 -110 84 -186 188 -155 87 26 122 141 65
216 -46 59 -140 71 -200 24 -32 -25 -43 -20 -117 58 -58 61 -109 146 -109 184
0 11 19 70 43 130 l42 108 45 15 c46 15 133 22 228 18 49 -2 52 -4 52 -27 0
-68 100 -100 157 -51 22 19 28 32 28 65 0 86 -99 129 -162 69 l-28 -26 -73 34
c-40 20 -97 58 -129 88 l-57 53 -1 164 c-1 90 -5 187 -9 215 -8 50 -8 50 36
95 24 24 70 59 102 78 l57 34 35 -36 c91 -93 230 -83 301 22 27 41 32 135 8
180 -29 58 -105 101 -176 101 -39 0 -122 -46 -146 -82 -12 -18 -25 -53 -29
-78 -4 -25 -12 -48 -18 -53 -15 -10 -129 1 -194 20 -53 15 -53 15 -92 96 -21
45 -53 107 -70 137 -28 49 -31 61 -27 118 5 70 53 179 105 242 26 31 34 34 74
31 64 -4 103 30 103 89 0 34 -6 47 -28 66 -39 34 -99 33 -134 -2 -22 -22 -25
-32 -21 -76 5 -50 5 -50 -40 -83 -59 -42 -162 -85 -221 -91 -44 -5 -49 -3
-121 56 -41 34 -92 71 -112 83 -32 19 -39 29 -44 66 -10 63 1 153 26 224 l22
62 51 1 c88 0 141 55 139 142 0 56 -38 107 -91 123 -139 41 -246 -112 -155
-221 l26 -30 -64 -63 c-73 -73 -155 -124 -215 -133 -27 -4 -73 1 -130 14 -48
11 -111 23 -139 27 -58 7 -84 29 -127 105 -29 53 -45 100 -56 168 l-8 50 38
11 c41 13 105 77 115 116 3 14 4 50 2 79 -5 64 -34 109 -88 136 -52 26 -144
27 -185 1z m383 -785 c244 -54 445 -161 624 -334 256 -248 388 -556 388 -907
0 -603 -420 -1113 -1023 -1242 -101 -22 -371 -24 -462 -5 -270 59 -489 175
-670 357 -180 180 -295 395 -351 656 -29 135 -25 363 9 507 50 216 163 429
312 590 82 89 233 203 341 260 101 52 264 107 375 127 107 18 354 14 457 -9z"/>
<path d="M2735 3447 c-78 -31 -125 -96 -125 -172 0 -182 244 -249 347 -96 27
41 32 135 8 180 -40 79 -148 120 -230 88z m129 -118 c14 -17 26 -41 26 -54 0
-13 -12 -37 -26 -54 -43 -52 -123 -40 -149 22 -25 60 16 117 86 117 29 0 43
-7 63 -31z"/>
<path d="M1842 2795 c-26 -22 -32 -34 -32 -65 0 -52 8 -68 41 -85 45 -24 87
-19 120 14 58 58 26 147 -57 158 -33 4 -45 1 -72 -22z"/>
<path d="M3419 2707 c-44 -34 -51 -101 -14 -141 19 -21 33 -26 70 -26 62 0 95
32 95 90 0 57 -34 90 -92 90 -24 0 -50 -6 -59 -13z"/>
<path d="M2694 2220 c-31 -12 -54 -49 -54 -88 0 -45 46 -92 90 -92 62 0 102
38 102 95 0 72 -67 114 -138 85z"/>
<path d="M1895 2073 c-73 -38 -105 -90 -105 -169 0 -101 78 -174 184 -174 110
0 186 74 186 181 0 43 -26 104 -57 131 -51 46 -151 61 -208 31z"/>
<path d="M2884 1637 c-21 -19 -27 -32 -27 -67 0 -58 35 -90 97 -90 66 0 108
52 92 115 -16 65 -108 88 -162 42z"/>
</g>
</svg>
